<mxfile host="app.diagrams.net" modified="2022-07-26T03:25:02.670Z" agent="5.0 (Macintosh; Intel Mac OS X 10_15_7) AppleWebKit/605.1.15 (KHTML, like Gecko) Version/15.5 Safari/605.1.15" etag="blQiBlBSH3lUXZr3aOCl" version="20.1.3" type="github">
  <diagram id="9Ytio7iipGF_m_s8Qt3p" name="第 1 页">
    <mxGraphModel dx="1426" dy="825" grid="1" gridSize="10" guides="1" tooltips="1" connect="1" arrows="1" fold="1" page="1" pageScale="1" pageWidth="827" pageHeight="1169" math="0" shadow="0">
      <root>
        <mxCell id="0" />
        <mxCell id="1" parent="0" />
        <mxCell id="RWXnwcosVp1NmUcBW_NO-2" value="" style="shape=ext;double=1;rounded=0;whiteSpace=wrap;html=1;fillColor=#f5f5f5;fontColor=#333333;strokeColor=#666666;" vertex="1" parent="1">
          <mxGeometry x="50" y="60" width="710" height="1140" as="geometry" />
        </mxCell>
        <mxCell id="RWXnwcosVp1NmUcBW_NO-3" value="Daemon" style="text;strokeColor=none;fillColor=none;html=1;fontSize=24;fontStyle=1;verticalAlign=middle;align=center;" vertex="1" parent="1">
          <mxGeometry x="60" y="70" width="100" height="40" as="geometry" />
        </mxCell>
        <mxCell id="RWXnwcosVp1NmUcBW_NO-6" value="GC" style="shape=ext;double=1;rounded=1;whiteSpace=wrap;html=1;fontSize=29;" vertex="1" parent="1">
          <mxGeometry x="345" y="150" width="120" height="80" as="geometry" />
        </mxCell>
        <mxCell id="RWXnwcosVp1NmUcBW_NO-7" value="UpLoad" style="shape=ext;double=1;rounded=1;whiteSpace=wrap;html=1;fontSize=29;" vertex="1" parent="1">
          <mxGeometry x="345" y="250" width="120" height="80" as="geometry" />
        </mxCell>
        <mxCell id="RWXnwcosVp1NmUcBW_NO-8" value="RPCServer" style="shape=ext;double=1;rounded=1;whiteSpace=wrap;html=1;fontSize=29;" vertex="1" parent="1">
          <mxGeometry x="345" y="350" width="165" height="80" as="geometry" />
        </mxCell>
        <mxCell id="RWXnwcosVp1NmUcBW_NO-9" value="Proxy" style="shape=ext;double=1;rounded=1;whiteSpace=wrap;html=1;fontSize=29;" vertex="1" parent="1">
          <mxGeometry x="345" y="450" width="120" height="80" as="geometry" />
        </mxCell>
        <mxCell id="RWXnwcosVp1NmUcBW_NO-10" value="ObjServer" style="shape=ext;double=1;rounded=1;whiteSpace=wrap;html=1;fontSize=29;" vertex="1" parent="1">
          <mxGeometry x="345" y="550" width="165" height="80" as="geometry" />
        </mxCell>
        <mxCell id="RWXnwcosVp1NmUcBW_NO-11" value="AliveCheck" style="shape=ext;double=1;rounded=1;whiteSpace=wrap;html=1;fontSize=29;" vertex="1" parent="1">
          <mxGeometry x="345" y="650" width="165" height="80" as="geometry" />
        </mxCell>
        <mxCell id="RWXnwcosVp1NmUcBW_NO-12" value="HealthCheck" style="shape=ext;double=1;rounded=1;whiteSpace=wrap;html=1;fontSize=29;" vertex="1" parent="1">
          <mxGeometry x="345" y="750" width="175" height="80" as="geometry" />
        </mxCell>
        <mxCell id="RWXnwcosVp1NmUcBW_NO-40" value="可观测性" style="shape=table;startSize=40;container=1;collapsible=0;childLayout=tableLayout;fixedRows=1;rowLines=0;fontStyle=1;fontSize=29;" vertex="1" parent="1">
          <mxGeometry x="345" y="950" width="205" height="190" as="geometry" />
        </mxCell>
        <mxCell id="RWXnwcosVp1NmUcBW_NO-41" value="" style="shape=tableRow;horizontal=0;startSize=0;swimlaneHead=0;swimlaneBody=0;top=0;left=0;bottom=0;right=0;collapsible=0;dropTarget=0;fillColor=none;points=[[0,0.5],[1,0.5]];portConstraint=eastwest;fontSize=29;" vertex="1" parent="RWXnwcosVp1NmUcBW_NO-40">
          <mxGeometry y="40" width="205" height="40" as="geometry" />
        </mxCell>
        <mxCell id="RWXnwcosVp1NmUcBW_NO-42" value="" style="shape=partialRectangle;html=1;whiteSpace=wrap;connectable=0;fillColor=none;top=0;left=0;bottom=0;right=0;overflow=hidden;pointerEvents=1;fontSize=29;" vertex="1" parent="RWXnwcosVp1NmUcBW_NO-41">
          <mxGeometry width="20" height="40" as="geometry">
            <mxRectangle width="20" height="40" as="alternateBounds" />
          </mxGeometry>
        </mxCell>
        <mxCell id="RWXnwcosVp1NmUcBW_NO-43" value="Prometheus" style="shape=partialRectangle;html=1;whiteSpace=wrap;connectable=0;fillColor=none;top=0;left=0;bottom=0;right=0;align=left;spacingLeft=6;overflow=hidden;fontSize=29;" vertex="1" parent="RWXnwcosVp1NmUcBW_NO-41">
          <mxGeometry x="20" width="185" height="40" as="geometry">
            <mxRectangle width="185" height="40" as="alternateBounds" />
          </mxGeometry>
        </mxCell>
        <mxCell id="RWXnwcosVp1NmUcBW_NO-44" value="" style="shape=tableRow;horizontal=0;startSize=0;swimlaneHead=0;swimlaneBody=0;top=0;left=0;bottom=0;right=0;collapsible=0;dropTarget=0;fillColor=none;points=[[0,0.5],[1,0.5]];portConstraint=eastwest;fontSize=29;" vertex="1" parent="RWXnwcosVp1NmUcBW_NO-40">
          <mxGeometry y="80" width="205" height="40" as="geometry" />
        </mxCell>
        <mxCell id="RWXnwcosVp1NmUcBW_NO-45" value="" style="shape=partialRectangle;html=1;whiteSpace=wrap;connectable=0;fillColor=none;top=0;left=0;bottom=0;right=0;overflow=hidden;fontSize=29;" vertex="1" parent="RWXnwcosVp1NmUcBW_NO-44">
          <mxGeometry width="20" height="40" as="geometry">
            <mxRectangle width="20" height="40" as="alternateBounds" />
          </mxGeometry>
        </mxCell>
        <mxCell id="RWXnwcosVp1NmUcBW_NO-46" value="Jaeger" style="shape=partialRectangle;html=1;whiteSpace=wrap;connectable=0;fillColor=none;top=0;left=0;bottom=0;right=0;align=left;spacingLeft=6;overflow=hidden;fontSize=29;" vertex="1" parent="RWXnwcosVp1NmUcBW_NO-44">
          <mxGeometry x="20" width="185" height="40" as="geometry">
            <mxRectangle width="185" height="40" as="alternateBounds" />
          </mxGeometry>
        </mxCell>
        <mxCell id="RWXnwcosVp1NmUcBW_NO-47" value="" style="shape=tableRow;horizontal=0;startSize=0;swimlaneHead=0;swimlaneBody=0;top=0;left=0;bottom=0;right=0;collapsible=0;dropTarget=0;fillColor=none;points=[[0,0.5],[1,0.5]];portConstraint=eastwest;fontSize=29;" vertex="1" parent="RWXnwcosVp1NmUcBW_NO-40">
          <mxGeometry y="120" width="205" height="40" as="geometry" />
        </mxCell>
        <mxCell id="RWXnwcosVp1NmUcBW_NO-48" value="" style="shape=partialRectangle;html=1;whiteSpace=wrap;connectable=0;fillColor=none;top=0;left=0;bottom=0;right=0;overflow=hidden;fontSize=29;" vertex="1" parent="RWXnwcosVp1NmUcBW_NO-47">
          <mxGeometry width="20" height="40" as="geometry">
            <mxRectangle width="20" height="40" as="alternateBounds" />
          </mxGeometry>
        </mxCell>
        <mxCell id="RWXnwcosVp1NmUcBW_NO-49" value="pprof" style="shape=partialRectangle;html=1;whiteSpace=wrap;connectable=0;fillColor=none;top=0;left=0;bottom=0;right=0;align=left;spacingLeft=6;overflow=hidden;fontSize=29;" vertex="1" parent="RWXnwcosVp1NmUcBW_NO-47">
          <mxGeometry x="20" width="185" height="40" as="geometry">
            <mxRectangle width="185" height="40" as="alternateBounds" />
          </mxGeometry>
        </mxCell>
        <mxCell id="RWXnwcosVp1NmUcBW_NO-53" value="Dynconfig" style="shape=ext;double=1;rounded=1;whiteSpace=wrap;html=1;fontSize=29;" vertex="1" parent="1">
          <mxGeometry x="345" y="850" width="155" height="80" as="geometry" />
        </mxCell>
        <mxCell id="RWXnwcosVp1NmUcBW_NO-55" value="http" style="shape=singleArrow;whiteSpace=wrap;html=1;fontSize=18;" vertex="1" parent="1">
          <mxGeometry x="245" y="260" width="100" height="60" as="geometry" />
        </mxCell>
        <mxCell id="RWXnwcosVp1NmUcBW_NO-56" value="grpc" style="shape=singleArrow;whiteSpace=wrap;html=1;fontSize=18;" vertex="1" parent="1">
          <mxGeometry x="245" y="360" width="100" height="60" as="geometry" />
        </mxCell>
        <mxCell id="RWXnwcosVp1NmUcBW_NO-57" value="http" style="shape=singleArrow;whiteSpace=wrap;html=1;fontSize=18;" vertex="1" parent="1">
          <mxGeometry x="245" y="460" width="100" height="60" as="geometry" />
        </mxCell>
        <mxCell id="RWXnwcosVp1NmUcBW_NO-58" value="&lt;div style=&quot;text-align: start;&quot;&gt;time tick&lt;/div&gt;" style="shape=singleArrow;whiteSpace=wrap;html=1;fontSize=18;" vertex="1" parent="1">
          <mxGeometry x="245" y="160" width="100" height="60" as="geometry" />
        </mxCell>
        <mxCell id="RWXnwcosVp1NmUcBW_NO-59" value="http" style="shape=singleArrow;whiteSpace=wrap;html=1;fontSize=18;" vertex="1" parent="1">
          <mxGeometry x="245" y="560" width="100" height="60" as="geometry" />
        </mxCell>
        <mxCell id="RWXnwcosVp1NmUcBW_NO-60" value="http" style="shape=singleArrow;whiteSpace=wrap;html=1;fontSize=18;" vertex="1" parent="1">
          <mxGeometry x="245" y="760" width="100" height="60" as="geometry" />
        </mxCell>
        <mxCell id="RWXnwcosVp1NmUcBW_NO-61" value="time tick" style="shape=singleArrow;whiteSpace=wrap;html=1;fontSize=18;" vertex="1" parent="1">
          <mxGeometry x="245" y="660" width="100" height="60" as="geometry" />
        </mxCell>
        <mxCell id="RWXnwcosVp1NmUcBW_NO-62" value="time tick" style="shape=singleArrow;whiteSpace=wrap;html=1;fontSize=18;" vertex="1" parent="1">
          <mxGeometry x="245" y="860" width="100" height="60" as="geometry" />
        </mxCell>
        <mxCell id="RWXnwcosVp1NmUcBW_NO-63" value="daemon被调用&lt;br&gt;服务的方式" style="text;strokeColor=none;fillColor=none;html=1;fontSize=24;fontStyle=1;verticalAlign=middle;align=center;" vertex="1" parent="1">
          <mxGeometry x="60" y="390" width="170" height="140" as="geometry" />
        </mxCell>
      </root>
    </mxGraphModel>
  </diagram>
</mxfile>
